<svg xmlns="http://www.w3.org/2000/svg" version="1.1" xmlns:xlink="http://www.w3.org/1999/xlink" width="90" height="90" x="0" y="0" viewBox="0 0 64 64" style="enable-background:new 0 0 512 512" xml:space="preserve" class=""><circle r="32" cx="32" cy="32" fill="#075fe4" shape="circle" transform="matrix(0.9,0,0,0.9,3.1999999999999993,3.1999999999999993)"></circle><g transform="matrix(0.6399999999999997,0,0,0.6399999999999997,10.438842658996599,11.524098587036136)"><path d="M55.938 17.306a4.008 4.008 0 0 0-4.633-3.245l-1.3.23V7a5.006 5.006 0 0 0-5-5H19a5.006 5.006 0 0 0-5 5v22.609a36.539 36.539 0 0 0-9.924 19.366L2.015 60.829a1 1 0 1 0 1.97.342l2.062-11.853A34.465 34.465 0 0 1 14 32.61v7.49a1 1 0 0 0 2 0V7a3 3 0 0 1 3-3h26a3 3 0 0 1 3 3v14.834a4.078 4.078 0 0 0-.71.053l-1.97.347a4.006 4.006 0 0 0-3.244 4.635 3.941 3.941 0 0 0 1.324 2.315 3.943 3.943 0 0 0 1.214 6.709A3.912 3.912 0 0 0 44 38a4 4 0 0 0 4 4v11a3 3 0 0 1-3 3H23.389a9.211 9.211 0 0 0 .528-2.045 21.529 21.529 0 0 1 .54-2.808 2 2 0 0 1 1.627-1.456l6.18-.951a6.02 6.02 0 0 0 5.027-6.779 3.252 3.252 0 0 0-.382-1.121A4.6 4.6 0 0 0 37 40a4.988 4.988 0 0 0-9.962-.379l-1.6.111A19.945 19.945 0 0 0 20 40.9V15a1 1 0 0 0-2 0v26.7l-2.437 1.027A13.969 13.969 0 0 0 7 55.629a1 1 0 0 0 2 0 11.974 11.974 0 0 1 7.341-11.058l3.5-1.475a17.977 17.977 0 0 1 5.741-1.369l8.369-.582a1.292 1.292 0 0 1 1.361 1.1 4.014 4.014 0 0 1-3.352 4.519l-6.18.95a4.006 4.006 0 0 0-3.254 2.912 23.723 23.723 0 0 0-.59 3.062A7.311 7.311 0 0 1 14.707 60a1 1 0 1 0 0 2 9.317 9.317 0 0 0 7.627-4h11.939a15.966 15.966 0 0 1-7.707 2 1 1 0 0 0 0 2 18.037 18.037 0 0 0 11.3-4H45a5.006 5.006 0 0 0 5-5V42a3.987 3.987 0 0 0 1.185-7.8 3.945 3.945 0 0 0-.576-5.375 3.964 3.964 0 0 0-.577-6.419l2.662-.469a4.005 4.005 0 0 0 3.244-4.631ZM33.812 39.15l-4.76.331a2.99 2.99 0 0 1 5.847-.214 3.226 3.226 0 0 0-1.087-.117ZM45.668 24.2l1.97-.347a1.966 1.966 0 0 1 .348-.031 2 2 0 0 1 .346 3.97l-1.97.347a2 2 0 0 1-.694-3.939Zm-1.622 8.317a2 2 0 0 1 1.622-2.317l1.97-.347a1.966 1.966 0 0 1 .348-.031 2 2 0 0 1 .346 3.97l-1.97.347a2 2 0 0 1-2.316-1.618ZM52 38a2 2 0 0 1-2 2h-2a2 2 0 0 1 0-4h2a2 2 0 0 1 2 2Zm-2-17.616v-4.062l1.652-.291a2 2 0 1 1 .7 3.939Z" fill="#ffffff" opacity="1" data-original="#000000" class=""></path><circle cx="19" cy="7" r="1" fill="#ffffff" opacity="1" data-original="#000000" class=""></circle><circle cx="23" cy="7" r="1" fill="#ffffff" opacity="1" data-original="#000000" class=""></circle><path d="M19 12h4a5.008 5.008 0 0 0 4.9-4H44v11.358a1 1 0 1 0 2 0V7a1 1 0 0 0-1-1H27a1 1 0 0 0-1 1 3 3 0 0 1-3 3h-4a1 1 0 0 0 0 2ZM25.985 53a1 1 0 0 0 1 1H45a1 1 0 0 0 1-1v-9.5a1 1 0 0 0-2 0V52H26.985a1 1 0 0 0-1 1Z" fill="#ffffff" opacity="1" data-original="#000000" class=""></path><path d="M37.754 20a1.244 1.244 0 0 1-1.209-.943l-.149-.6A3.242 3.242 0 0 0 33.246 16h-2.492a3.242 3.242 0 0 0-3.15 2.46l-.148.6a1.246 1.246 0 0 1-1.21.944A3.249 3.249 0 0 0 23 23.246v5.508A3.249 3.249 0 0 0 26.246 32H34a1 1 0 0 0 0-2h-7.754A1.247 1.247 0 0 1 25 28.754v-5.508A1.247 1.247 0 0 1 26.246 22a3.242 3.242 0 0 0 3.15-2.46l.148-.6a1.246 1.246 0 0 1 1.21-.94h2.492a1.244 1.244 0 0 1 1.209.943l.149.6A3.242 3.242 0 0 0 37.754 22 1.247 1.247 0 0 1 39 23.246v5.508A1.247 1.247 0 0 1 37.754 30a1 1 0 1 0 0 2A3.249 3.249 0 0 0 41 28.754v-5.508A3.249 3.249 0 0 0 37.754 20Z" fill="#ffffff" opacity="1" data-original="#000000" class=""></path><path d="M32 21.5a3.5 3.5 0 1 0 3.5 3.5 3.5 3.5 0 0 0-3.5-3.5Zm0 5a1.5 1.5 0 1 1 1.5-1.5 1.5 1.5 0 0 1-1.5 1.5Z" fill="#ffffff" opacity="1" data-original="#000000" class=""></path></g></svg>
