<svg xmlns="http://www.w3.org/2000/svg" version="1.1" xmlns:xlink="http://www.w3.org/1999/xlink" width="90" height="90" x="0" y="0" viewBox="0 0 512 512" style="enable-background:new 0 0 512 512" xml:space="preserve" class=""><circle r="256" cx="256" cy="256" fill="#075fe4" shape="circle" transform="matrix(0.9,0,0,0.9,25.599999999999994,25.599999999999994)"></circle><g transform="matrix(0.6000000000000006,0,0,0.6000000000000006,117.40000152587879,102.46629333496074)"><g data-name="Out line"><path d="M156 96a20 20 0 1 0-20-20 20.023 20.023 0 0 0 20 20Zm0-24a4 4 0 1 1-4 4 4.005 4.005 0 0 1 4-4ZM160 192a80.09 80.09 0 0 0 80-80h-16a64.073 64.073 0 0 1-64 64ZM259.513 262.798a72.07 72.07 0 0 0 11.915-19.827l-14.856-5.942A55.367 55.367 0 0 1 204.92 272H200v16h4.919a72.503 72.503 0 0 0 14.47-1.462l2.788 11.154a56.358 56.358 0 0 0 54.4 42.415c1.82 0 3.658-.09 5.5-.274l38.719-3.873a8 8 0 0 0 4.556-13.906Zm20.972 61.114a40.217 40.217 0 0 1-42.786-30.1l-3.054-12.216a71.002 71.002 0 0 0 13.18-7.791l53.372 48.035Z" fill="#ffffff" opacity="1" data-original="#000000" class=""></path><path d="M495.785 198.158a8 8 0 0 0-6.8-6.097l-95.387-11.831A369.777 369.777 0 0 0 86.958 16.375l-30.622-.042h-.01a8 8 0 0 0-8 7.989l-.05 37.147a369.67 369.67 0 0 0 113.205 266.769l-32.323 7.3-101.365-54.582a8 8 0 0 0-9.985 12.109l.358.438A250.252 250.252 0 0 1 72.08 486.869a8 8 0 0 0 14.575 5.569L148.281 400h6.117l21.378 58.736a7.992 7.992 0 0 0 10.025 4.86l71.732-23.677 37.388-.091 19.1 21.487A8 8 0 0 0 328 456v-16.252l33.165-.08A102.972 102.972 0 0 0 464 336.811v-7.965a103.025 103.025 0 0 0-12.598-49.296 78.033 78.033 0 0 1 34.577-68.59l6.458-4.305a8 8 0 0 0 3.348-8.498ZM64.424 71.86a71.027 71.027 0 0 1 47.657 57.271l15.838-2.262a87.025 87.025 0 0 0-63.634-71.763l.03-22.762 22.62.031a354.277 354.277 0 0 1 177.36 47.942q12.078 7.023 23.527 14.964C284.009 175.726 217.372 240 136 240h-23.661c-.099-.17-.201-.336-.3-.506A354.266 354.266 0 0 1 64.425 71.86ZM87.53 411.784l29.188-29.188a35.652 35.652 0 0 1-3.354 14.992l-22.855 48.974a266.018 266.018 0 0 0-2.98-34.778Zm-3.605-19.022q-2.614-11.495-6.235-22.725l25.34 3.62Zm-12.37-39.764a266.088 266.088 0 0 0-15.441-32.229l45.628 32.592a35.784 35.784 0 0 1 5.366 4.716Zm100.705 49.296a59.476 59.476 0 0 1 18.57 8.982l-14.263 2.852Zm9.843 27.044 24.156-4.831a76.8 76.8 0 0 0 17.281 9.783l-35.384 11.68Zm70.21-5.407h-.142a60.573 60.573 0 0 1-42.548-17.622A75.668 75.668 0 0 0 155.764 384H144a8 8 0 0 0-6.656 3.563l-7.064 10.595a51.805 51.805 0 0 0-9.817-49.13l3.744 2.016a8 8 0 0 0 5.555.76l46.106-10.411a369.595 369.595 0 0 0 59.046 41.84l19.673 11.219 26.142 29.41ZM312 434.96l-32.814-36.916L312 406.246Zm136-98.146a86.847 86.847 0 0 1-120 80.278V400a8 8 0 0 0-6.06-7.761l-64-16a7.953 7.953 0 0 0-3.193-.115l-11.908-6.79A354.285 354.285 0 0 1 122.243 256H136c86.423 0 157.803-65.598 166.99-149.616a354.306 354.306 0 0 1 90.717 104.345l42.858 75.042A86.997 86.997 0 0 1 448 328.847Zm5.275-116.244-16.837-11.225-8.875 13.312 17.44 11.627a94.237 94.237 0 0 0-7.424 21L407.6 202.794q-1.456-2.549-2.952-5.071l62.327 7.73a93.753 93.753 0 0 0-13.7 15.116Z" fill="#ffffff" opacity="1" data-original="#000000" class=""></path></g></g></svg>